<svg width="21" height="20" viewBox="0 0 21 20" fill="none" xmlns="http://www.w3.org/2000/svg">
<path d="M19.9333 3.41667C19.4583 2.83333 18.75 2.5 18 2.5H6.53333L6.49999 2.20833C6.34999 0.95 5.28333 0 4.01666 0H3C2.54166 0 2.16666 0.375 2.16666 0.833333C2.16666 1.29167 2.54166 1.66667 3 1.66667H4.01666C4.44166 1.66667 4.79166 1.98333 4.84166 2.4L5.99166 12.15C6.24166 14.25 8.01666 15.8333 10.1333 15.8333H17.1666C17.625 15.8333 18 15.4583 18 15C18 14.5417 17.625 14.1667 17.1666 14.1667H10.1333C9.05832 14.1667 8.12499 13.4833 7.77499 12.5H15.6333C17.6166 12.5 19.3333 11.0917 19.7166 9.15L20.45 5.49167C20.6 4.75833 20.4083 4 19.9333 3.41667ZM18.8166 5.16667L18.0833 8.825C17.85 9.99167 16.8166 10.8333 15.6333 10.8333H7.51666L6.73333 4.16667H18C18.25 4.16667 18.4833 4.275 18.6416 4.475C18.8 4.66667 18.8666 4.925 18.8166 5.16667ZM9.66666 18.3333C9.66666 19.25 8.91666 20 7.99999 20C7.08333 20 6.33333 19.25 6.33333 18.3333C6.33333 17.4167 7.08333 16.6667 7.99999 16.6667C8.91666 16.6667 9.66666 17.4167 9.66666 18.3333ZM17.1666 18.3333C17.1666 19.25 16.4166 20 15.5 20C14.5833 20 13.8333 19.25 13.8333 18.3333C13.8333 17.4167 14.5833 16.6667 15.5 16.6667C16.4166 16.6667 17.1666 17.4167 17.1666 18.3333ZM0.5 5C0.5 4.54167 0.875 4.16667 1.33333 4.16667H2.61666C3.075 4.16667 3.45 4.54167 3.45 5C3.45 5.45833 3.075 5.83333 2.61666 5.83333H1.33333C0.875 5.83333 0.5 5.45833 0.5 5ZM0.5 8.33333C0.5 7.875 0.875 7.5 1.33333 7.5H3C3.45833 7.5 3.83333 7.875 3.83333 8.33333C3.83333 8.79167 3.45833 9.16667 3 9.16667H1.33333C0.875 9.16667 0.5 8.79167 0.5 8.33333ZM4.66666 11.6667C4.66666 12.125 4.29166 12.5 3.83333 12.5H1.33333C0.875 12.5 0.5 12.125 0.5 11.6667C0.5 11.2083 0.875 10.8333 1.33333 10.8333H3.83333C4.29166 10.8333 4.66666 11.2083 4.66666 11.6667Z" fill="#032B2F"/>
<path d="M19.9333 3.41667C19.4583 2.83333 18.75 2.5 18 2.5H6.53333L6.49999 2.20833C6.34999 0.95 5.28333 0 4.01666 0H3C2.54166 0 2.16666 0.375 2.16666 0.833333C2.16666 1.29167 2.54166 1.66667 3 1.66667H4.01666C4.44166 1.66667 4.79166 1.98333 4.84166 2.4L5.99166 12.15C6.24166 14.25 8.01666 15.8333 10.1333 15.8333H17.1666C17.625 15.8333 18 15.4583 18 15C18 14.5417 17.625 14.1667 17.1666 14.1667H10.1333C9.05832 14.1667 8.12499 13.4833 7.77499 12.5H15.6333C17.6166 12.5 19.3333 11.0917 19.7166 9.15L20.45 5.49167C20.6 4.75833 20.4083 4 19.9333 3.41667ZM18.8166 5.16667L18.0833 8.825C17.85 9.99167 16.8166 10.8333 15.6333 10.8333H7.51666L6.73333 4.16667H18C18.25 4.16667 18.4833 4.275 18.6416 4.475C18.8 4.66667 18.8666 4.925 18.8166 5.16667ZM9.66666 18.3333C9.66666 19.25 8.91666 20 7.99999 20C7.08333 20 6.33333 19.25 6.33333 18.3333C6.33333 17.4167 7.08333 16.6667 7.99999 16.6667C8.91666 16.6667 9.66666 17.4167 9.66666 18.3333ZM17.1666 18.3333C17.1666 19.25 16.4166 20 15.5 20C14.5833 20 13.8333 19.25 13.8333 18.3333C13.8333 17.4167 14.5833 16.6667 15.5 16.6667C16.4166 16.6667 17.1666 17.4167 17.1666 18.3333ZM0.5 5C0.5 4.54167 0.875 4.16667 1.33333 4.16667H2.61666C3.075 4.16667 3.45 4.54167 3.45 5C3.45 5.45833 3.075 5.83333 2.61666 5.83333H1.33333C0.875 5.83333 0.5 5.45833 0.5 5ZM0.5 8.33333C0.5 7.875 0.875 7.5 1.33333 7.5H3C3.45833 7.5 3.83333 7.875 3.83333 8.33333C3.83333 8.79167 3.45833 9.16667 3 9.16667H1.33333C0.875 9.16667 0.5 8.79167 0.5 8.33333ZM4.66666 11.6667C4.66666 12.125 4.29166 12.5 3.83333 12.5H1.33333C0.875 12.5 0.5 12.125 0.5 11.6667C0.5 11.2083 0.875 10.8333 1.33333 10.8333H3.83333C4.29166 10.8333 4.66666 11.2083 4.66666 11.6667Z" stroke="#032B2F"/>
</svg>
