<svg width="47" height="48" viewBox="0 0 47 48" fill="none" xmlns="http://www.w3.org/2000/svg">
<path d="M23.4901 47.2701C10.5601 47.2701 0.0400391 36.7501 0.0400391 23.8201C0.0400391 10.8901 10.5601 0.370117 23.4901 0.370117C36.4201 0.370117 46.94 10.8901 46.94 23.8201C46.94 36.7501 36.4201 47.2701 23.4901 47.2701ZM23.4901 0.810112C10.8001 0.810112 0.470047 11.1401 0.470047 23.8301C0.470047 36.5201 10.7901 46.8501 23.4901 46.8501C36.1901 46.8501 46.51 36.5301 46.51 23.8301C46.51 11.1301 36.1801 0.810112 23.4901 0.810112Z" fill="#EFF2EE"/>
<path d="M20.3502 36.2799H25.3602V23.7199H28.8602L29.2302 19.5199H25.3602V17.1299C25.3602 16.1399 25.5602 15.7499 26.5202 15.7499H29.2302V11.3899H25.7602C22.0302 11.3899 20.3502 13.0299 20.3502 16.1799V19.5299H17.7402V23.7899H20.3502V36.2899V36.2799Z" fill="#EFF2EE"/>
</svg>
