<svg width="25" height="25" viewBox="0 0 25 25" fill="none" xmlns="http://www.w3.org/2000/svg">
<path d="M24.5781 10.3116L13.3252 0.310938C13.097 0.110526 12.8037 0 12.5 0C12.1963 0 11.903 0.110526 11.6748 0.310938L0.4219 10.3116C0.230646 10.4807 0.0957762 10.7044 0.0354249 10.9524C-0.0249263 11.2005 -0.00786561 11.4611 0.0843133 11.6992C0.174984 11.9341 0.334509 12.1362 0.541992 12.2789C0.749476 12.4217 0.995246 12.4985 1.24711 12.4992H2.49743V23.7499C2.49743 24.0815 2.62916 24.3994 2.86364 24.6339C3.09812 24.8683 3.41615 25 3.74775 25H21.2522C21.5839 25 21.9019 24.8683 22.1364 24.6339C22.3708 24.3994 22.5026 24.0815 22.5026 23.7499V12.4992H23.7529C24.0048 12.4985 24.2505 12.4217 24.458 12.2789C24.6655 12.1362 24.825 11.9341 24.9157 11.6992C25.0079 11.4611 25.0249 11.2005 24.9646 10.9524C24.9042 10.7044 24.7694 10.4807 24.5781 10.3116ZM13.7503 22.4998H11.2497V18.7496C11.2497 18.4181 11.3814 18.1001 11.6159 17.8657C11.8504 17.6312 12.1684 17.4995 12.5 17.4995C12.8316 17.4995 13.1496 17.6312 13.3841 17.8657C13.6186 18.1001 13.7503 18.4181 13.7503 18.7496V22.4998ZM20.0019 22.4998H16.251V18.7496C16.251 17.755 15.8558 16.8011 15.1523 16.0978C14.4489 15.3945 13.4948 14.9994 12.5 14.9994C11.5052 14.9994 10.5511 15.3945 9.84767 16.0978C9.14423 16.8011 8.74904 17.755 8.74904 18.7496V22.4998H4.99807V12.4992H20.0019V22.4998ZM4.53546 9.99905L12.5 2.9236L20.4645 9.99905H4.53546Z" fill="#EFF2EE"/>
</svg>
