<svg width="47" height="47" viewBox="0 0 47 47" fill="none" xmlns="http://www.w3.org/2000/svg">
<path d="M23.45 46.9C10.52 46.9 0 36.38 0 23.45C0 10.52 10.52 0 23.45 0C36.38 0 46.9 10.52 46.9 23.45C46.9 36.38 36.38 46.9 23.45 46.9ZM23.45 0.440002C10.76 0.440002 0.43 10.76 0.43 23.46C0.43 36.16 10.75 46.48 23.45 46.48C36.15 46.48 46.47 36.15 46.47 23.46C46.47 10.77 36.15 0.440002 23.45 0.440002Z" fill="#EFF2EE"/>
<path d="M23.4502 14.1899C26.4702 14.1899 26.8202 14.1999 28.0102 14.2599C29.1102 14.3099 29.7102 14.4899 30.1102 14.6499C30.6402 14.8499 31.0102 15.0999 31.4102 15.4899C31.8102 15.8899 32.0502 16.2599 32.2502 16.7899C32.4002 17.1899 32.5902 17.7899 32.6402 18.8899C32.6902 20.0799 32.7102 20.4399 32.7102 23.4499C32.7102 26.4599 32.7002 26.8199 32.6402 28.0099C32.5902 29.1099 32.4102 29.7099 32.2502 30.1099C32.0502 30.6399 31.8002 31.0099 31.4102 31.4099C31.0202 31.8099 30.6402 32.0499 30.1102 32.2499C29.7102 32.3999 29.1102 32.5899 28.0102 32.6399C26.8202 32.6899 26.4602 32.7099 23.4502 32.7099C20.4402 32.7099 20.0802 32.6999 18.8902 32.6399C17.7902 32.5899 17.1902 32.4099 16.7902 32.2499C16.2602 32.0499 15.8902 31.7999 15.4902 31.4099C15.0902 31.0099 14.8502 30.6399 14.6502 30.1099C14.5002 29.7099 14.3102 29.1099 14.2602 28.0099C14.2102 26.8199 14.1902 26.4599 14.1902 23.4499C14.1902 20.4399 14.2002 20.0799 14.2602 18.8899C14.3102 17.7899 14.4902 17.1899 14.6502 16.7899C14.8502 16.2599 15.1002 15.8899 15.4902 15.4899C15.8902 15.0899 16.2602 14.8499 16.7902 14.6499C17.1902 14.4999 17.7902 14.3099 18.8902 14.2599C20.0802 14.2099 20.4402 14.1899 23.4502 14.1899ZM23.4502 12.1599C20.3802 12.1599 20.0002 12.1699 18.7902 12.2299C17.5902 12.2799 16.7702 12.4799 16.0502 12.7599C15.3102 13.0499 14.6802 13.4299 14.0502 14.0599C13.4202 14.6899 13.0402 15.3199 12.7502 16.0599C12.4702 16.7799 12.2802 17.5999 12.2302 18.7999C12.1702 19.9999 12.1602 20.3899 12.1602 23.4599C12.1602 26.5299 12.1702 26.9099 12.2302 28.1199C12.2802 29.3199 12.4802 30.1399 12.7502 30.8599C13.0402 31.5999 13.4202 32.2299 14.0502 32.8599C14.6802 33.4899 15.3102 33.8699 16.0502 34.1599C16.7702 34.4399 17.5902 34.6299 18.7902 34.6899C19.9902 34.7399 20.3802 34.7599 23.4502 34.7599C26.5202 34.7599 26.9002 34.7499 28.1102 34.6899C29.3102 34.6399 30.1302 34.4399 30.8502 34.1599C31.5902 33.8699 32.2202 33.4899 32.8502 32.8599C33.4802 32.2299 33.8602 31.5999 34.1502 30.8599C34.4302 30.1399 34.6202 29.3199 34.6702 28.1199C34.7202 26.9199 34.7402 26.5299 34.7402 23.4599C34.7402 20.3899 34.7302 20.0099 34.6702 18.7999C34.6202 17.5999 34.4202 16.7799 34.1502 16.0599C33.8602 15.3199 33.4802 14.6899 32.8502 14.0599C32.2202 13.4299 31.5902 13.0499 30.8502 12.7599C30.1302 12.4799 29.3102 12.2899 28.1102 12.2299C26.9102 12.1799 26.5202 12.1599 23.4502 12.1599Z" fill="#EFF2EE"/>
<path d="M23.4499 17.6499C20.2499 17.6499 17.6499 20.2499 17.6499 23.4499C17.6499 26.6499 20.2499 29.2499 23.4499 29.2499C26.6499 29.2499 29.2499 26.6499 29.2499 23.4499C29.2499 20.2499 26.6499 17.6499 23.4499 17.6499ZM23.4499 27.2099C21.3699 27.2099 19.6899 25.5199 19.6899 23.4499C19.6899 21.3799 21.3799 19.6899 23.4499 19.6899C25.5199 19.6899 27.2099 21.3799 27.2099 23.4499C27.2099 25.5199 25.5199 27.2099 23.4499 27.2099Z" fill="#EFF2EE"/>
<path d="M30.8299 17.4201C30.8299 18.1701 30.2199 18.7801 29.4699 18.7801C28.7199 18.7801 28.1099 18.1701 28.1099 17.4201C28.1099 16.6701 28.7199 16.0601 29.4699 16.0601C30.2199 16.0601 30.8299 16.6701 30.8299 17.4201Z" fill="#EFF2EE"/>
</svg>
