<svg width="17" height="16" viewBox="0 0 17 16" fill="none" xmlns="http://www.w3.org/2000/svg">
<path fill-rule="evenodd" clip-rule="evenodd" d="M0 5.44986C0 2.47073 2.07131 0 5.14677 0C6.35901 0 7.42641 0.552724 8.50163 1.49442C9.61166 0.541518 10.759 0 11.9597 0C15.0476 0 17.0494 2.4872 16.9991 5.46361C16.985 6.29453 16.7024 7.18787 16.2841 8.0631C15.8611 8.94798 15.2736 9.86763 14.5909 10.7651C13.2269 12.5583 11.438 14.3218 9.68975 15.6056C8.97336 16.1316 8.02484 16.1308 7.30886 15.6072C5.56036 14.3285 3.76027 12.5787 2.39021 10.7895C1.70461 9.8942 1.115 8.97383 0.693748 8.08329C0.276742 7.20173 0 6.29772 0 5.44986ZM5.14677 1.5503C2.94754 1.5503 1.47826 3.26284 1.47826 5.44986C1.47826 5.96403 1.65262 6.62189 2.01801 7.39434C2.37916 8.15781 2.90324 8.98358 3.54281 9.81881C4.82308 11.4907 6.51925 13.1397 8.15443 14.3355C8.36288 14.488 8.63507 14.4875 8.84188 14.3356C10.4726 13.1382 12.1582 11.4772 13.4353 9.79834C14.0732 8.95975 14.5978 8.13142 14.9625 7.36837C15.3319 6.59565 15.5125 5.94109 15.521 5.43612C15.5581 3.24637 14.1465 1.5503 11.9597 1.5503C11.0935 1.5503 10.124 1.99661 9.00331 3.09361L8.49897 3.58728L7.99464 3.09361C6.85592 1.97896 5.99703 1.5503 5.14677 1.5503Z" fill="#D73A31"/>
</svg>
