<svg width="25" height="25" viewBox="0 0 25 25" fill="none" xmlns="http://www.w3.org/2000/svg">
<path d="M24.5438 22.3442L19.7047 17.5023C23.3255 12.6628 22.3382 5.80385 17.4995 2.18242C12.6608 -1.439 5.80293 -0.451555 2.18208 4.38793C-1.43877 9.22741 -0.451484 16.0864 4.38723 19.7078C8.27409 22.6168 13.6126 22.6168 17.4995 19.7078L22.3407 24.5497C22.949 25.1582 23.9354 25.1582 24.5437 24.5497C25.1521 23.9412 25.1521 22.9547 24.5437 22.3463L24.5438 22.3442ZM10.9837 18.7733C6.68329 18.7733 3.19715 15.2866 3.19715 10.9855C3.19715 6.68435 6.68329 3.19766 10.9837 3.19766C15.2841 3.19766 18.7703 6.68435 18.7703 10.9855C18.7657 15.2846 15.2822 18.7687 10.9837 18.7733Z" fill="#EFF2EE"/>
</svg>
