<svg width="32" height="32" viewBox="0 0 32 32" fill="none" xmlns="http://www.w3.org/2000/svg">
<path d="M31.2191 27.8772L25.1807 21.8363C29.6989 15.7984 28.4669 7.24102 22.4291 2.72285C16.3912 -1.79533 7.8338 -0.563372 3.31562 5.47449C-1.20256 11.5124 0.0294014 20.0698 6.06726 24.5879C10.9174 28.2173 17.5789 28.2173 22.4291 24.5879L28.47 30.6288C29.2291 31.388 30.4599 31.388 31.219 30.6288C31.9781 29.8697 31.9781 28.6389 31.219 27.8798L31.2191 27.8772ZM14.2985 23.422C8.93234 23.422 4.58226 19.0719 4.58226 13.7057C4.58226 8.33957 8.93234 3.98948 14.2985 3.98948C19.6647 3.98948 24.0148 8.33957 24.0148 13.7057C24.0091 19.0695 19.6623 23.4163 14.2985 23.422Z" fill="#EFF2EE"/>
</svg>
