<svg width="27" height="27" viewBox="0 0 27 27" fill="none" xmlns="http://www.w3.org/2000/svg">
<path d="M8.64902 3.74338L8.64894 3.74266C8.45248 2.09457 7.0554 0.85 5.39583 0.85H4.125C3.46924 0.85 2.93333 1.38591 2.93333 2.04167C2.93333 2.69743 3.46924 3.23333 4.125 3.23333H5.39583C5.85015 3.23333 6.22452 3.57142 6.27813 4.01777C6.27814 4.0178 6.27814 4.01784 6.27815 4.01787L7.71561 16.2051L7.71563 16.2052C8.03707 18.9054 10.3195 20.9417 13.0417 20.9417H21.8333C22.4891 20.9417 23.025 20.4058 23.025 19.75C23.025 19.0942 22.4891 18.5583 21.8333 18.5583H13.0417C11.837 18.5583 10.7814 17.8371 10.3146 16.775H19.9166C22.4672 16.775 24.6749 14.9641 25.168 12.4666L26.0844 7.89464C26.0844 7.89459 26.0844 7.89455 26.0845 7.8945C26.2811 6.9329 26.0295 5.93942 25.408 5.17612C24.7855 4.41167 23.8572 3.975 22.875 3.975H8.67549L8.64902 3.74338ZM23.7489 7.42794L23.7487 7.42885L22.8321 12.0018L22.8321 12.0018C22.5545 13.3898 21.3246 14.3917 19.9166 14.3917H9.90423L8.96031 6.35833H22.875C23.143 6.35833 23.3908 6.47386 23.5594 6.68686L23.5594 6.68688L23.5614 6.68928C23.7312 6.89481 23.8019 7.17167 23.7489 7.42794ZM10.375 26.15C11.6037 26.15 12.6083 25.1453 12.6083 23.9167C12.6083 22.688 11.6037 21.6833 10.375 21.6833C9.14631 21.6833 8.14166 22.688 8.14166 23.9167C8.14166 25.1453 9.14631 26.15 10.375 26.15ZM19.75 26.15C20.9787 26.15 21.9833 25.1453 21.9833 23.9167C21.9833 22.688 20.9787 21.6833 19.75 21.6833C18.5213 21.6833 17.5166 22.688 17.5166 23.9167C17.5166 25.1453 18.5213 26.15 19.75 26.15ZM2.04167 6.05833C1.38591 6.05833 0.85 6.59424 0.85 7.25C0.85 7.90576 1.38591 8.44167 2.04167 8.44167H3.64583C4.30159 8.44167 4.8375 7.90576 4.8375 7.25C4.8375 6.59424 4.30159 6.05833 3.64583 6.05833H2.04167ZM2.04167 10.225C1.38591 10.225 0.85 10.7609 0.85 11.4167C0.85 12.0724 1.38591 12.6083 2.04167 12.6083H4.125C4.78076 12.6083 5.31666 12.0724 5.31666 11.4167C5.31666 10.7609 4.78076 10.225 4.125 10.225H2.04167ZM5.16666 16.775C5.82242 16.775 6.35833 16.2391 6.35833 15.5833C6.35833 14.9276 5.82242 14.3917 5.16666 14.3917H2.04167C1.38591 14.3917 0.85 14.9276 0.85 15.5833C0.85 16.2391 1.38591 16.775 2.04167 16.775H5.16666Z" fill="#EFF2EE" stroke="#EFF2EE" stroke-width="0.3"/>
</svg>
