<svg width="59" height="99" viewBox="0 0 59 99" fill="none" xmlns="http://www.w3.org/2000/svg">
<path d="M49.7286 0H9.27143C4.1536 0.00671186 0.00674286 4.13451 0 9.22881V89.7712C0.00674286 94.8655 4.1536 98.9933 9.27143 99H49.7286C54.8464 98.9933 58.9933 94.8655 59 89.7712V9.22881C58.9933 4.13451 54.8464 0.00671186 49.7286 0ZM53.9429 89.7712C53.9395 92.0868 52.0549 93.9627 49.7286 93.9661H9.27143C6.94514 93.9627 5.06051 92.0868 5.05714 89.7712V9.22881C5.06051 6.91322 6.94514 5.03725 9.27143 5.0339H49.7286C52.0549 5.03725 53.9395 6.91322 53.9429 9.22881V89.7712ZM36.2429 82.2203H22.7571C21.3614 82.2203 20.2286 83.3479 20.2286 84.7373C20.2286 86.1266 21.3614 87.2542 22.7571 87.2542H36.2429C37.6386 87.2542 38.7714 86.1266 38.7714 84.7373C38.7714 83.3479 37.6386 82.2203 36.2429 82.2203ZM37.6049 32.029C36.8801 31.8377 36.0439 31.727 35.1842 31.727C32.9726 31.727 30.9329 32.4586 29.2943 33.6902L29.3179 33.6734C27.8379 32.6901 26.0173 32.1062 24.0619 32.1062C18.7789 32.1062 14.4971 36.3682 14.4971 41.627C14.4971 44.3486 15.6434 46.8052 17.4842 48.5402L17.4876 48.5436L27.4603 59.5477C27.9255 60.0611 28.5931 60.3799 29.3382 60.3799C30.0833 60.3799 30.7508 60.0611 31.2127 59.551L31.2161 59.5477L41.1415 48.5872C43.215 46.7045 44.5096 44.003 44.5096 40.9994C44.5096 40.1571 44.4085 39.3382 44.2163 38.5529L44.2298 38.6234C43.3363 35.4017 40.8415 32.9183 37.6723 32.0424L37.6049 32.029ZM37.5139 45.0802L37.4296 45.1742L29.3415 54.1043L21.1557 45.0802C20.1409 44.2681 19.5003 43.0298 19.5003 41.6438C19.5003 40.3819 20.033 39.2476 20.886 38.4456L20.8894 38.4422C21.6918 37.6166 22.8043 37.0965 24.0417 37.0663H24.0484C25.4475 37.1233 26.6882 37.7442 27.5547 38.7107L27.5581 38.714C28.0233 39.1537 28.6538 39.4221 29.3449 39.4221C30.0361 39.4221 30.6665 39.1537 31.1351 38.714C32.1263 37.5361 33.6064 36.7911 35.2584 36.7911C35.6293 36.7911 35.99 36.828 36.3373 36.8985L36.3035 36.8918C37.787 37.3113 38.9333 38.4489 39.3446 39.8953L39.3513 39.9255C39.4187 40.241 39.4558 40.6034 39.4558 40.9726C39.4558 42.6203 38.7074 44.0902 37.5307 45.0702L37.5206 45.0769L37.5139 45.0802Z" fill="#EFF2EE"/>
</svg>
