<svg width="90" height="90" viewBox="0 0 90 90" fill="none" xmlns="http://www.w3.org/2000/svg">
<path d="M89.1761 55.3019V67.417C89.1761 67.4723 89.1693 67.5298 89.1578 67.585C89.1073 67.8059 89.0498 68.0268 89.0154 68.25C87.5755 77.8846 82.2685 84.4059 73.1839 87.7793C71.4615 88.419 69.5762 88.6192 67.7643 89.015C67.7138 89.0265 67.6633 89.0311 67.6104 89.0311H22.7544C22.6878 89.0311 22.6189 89.0219 22.5546 89.0035C22.3962 88.9574 22.24 88.9068 22.0793 88.8838C12.9096 87.5998 6.32808 82.7215 2.90641 74.1477C-0.246575 66.2504 0.665104 58.3347 4.50932 50.8585C6.87234 46.2632 10.8429 43.541 15.9685 42.6574C21.0895 41.7738 25.9005 42.8001 30.3418 45.3911C31.9447 46.3254 33.357 47.5863 34.8795 48.7737C35.1321 48.9716 35.4835 48.9785 35.7499 48.8013C37.6651 47.5242 39.8559 47.1929 42.189 47.828C42.5542 47.9269 42.9331 47.7451 43.0823 47.3977C44.3936 44.3326 46.6464 42.4964 50.0543 42.3951C53.7607 42.2824 56.2064 44.1761 57.5865 47.3954C57.7243 47.7175 58.0665 47.8993 58.4087 47.8349C59.0907 47.706 59.7613 47.5656 60.4364 47.5518C61.0587 47.538 61.6857 47.6209 62.3126 47.706C62.7604 47.7658 63.1577 47.4184 63.1577 46.9651V32.5948C63.1577 32.1829 62.8247 31.847 62.4113 31.847H62.1541C56.6244 31.847 51.0969 31.8493 45.5671 31.847C43.6105 31.847 42.5978 30.8368 42.5955 28.8855C42.5932 24.0325 42.5794 19.1795 42.6139 14.3289C42.6185 13.5718 42.7907 12.8263 43.1214 12.1474C44.6646 8.96735 46.279 5.82177 47.8267 2.64398C48.4376 1.3899 49.3585 0.828434 50.7547 0.833036C57.2582 0.858348 63.7616 0.858346 70.2651 0.835336C71.7118 0.830734 73.0553 1.59239 73.7855 2.84188C82.5372 17.8426 87.5755 34.0054 88.8615 51.3486C88.958 52.6487 89.0705 53.9465 89.1761 55.2443C89.1761 55.2604 89.1761 55.2812 89.1761 55.3019ZM45.5854 66.5725C45.3236 66.3885 44.9746 66.3931 44.7174 66.5817C44.7151 66.5817 44.7151 66.584 44.7128 66.584C39.8903 70.1277 33.3432 67.4999 32.4109 61.5654C32.1514 59.9109 32.1904 58.1805 32.3121 56.4984C32.4729 54.2434 31.4555 52.6464 29.8481 51.2911C27.5792 49.3789 24.9383 48.2491 22.0379 47.7658C15.9065 46.7442 10.4892 48.8013 7.93788 55.578C6.45898 59.5059 6.04562 63.6042 6.48654 67.7714C7.41659 76.5247 15.2979 83.7892 24.0932 83.8352C38.1588 83.9066 52.2244 83.9135 66.2877 83.8329C75.664 83.78 83.7061 75.9011 83.9839 66.515C84.2297 58.1598 83.9403 49.823 82.5027 41.5529C80.351 29.1731 76.2128 17.5228 70.0125 6.60184C69.7484 6.13472 69.4568 5.99435 68.9378 5.99435C63.5228 6.01276 58.1101 6.01966 52.6952 5.98975C52.0728 5.98745 51.7996 6.21986 51.547 6.7399C50.4332 9.03408 49.3079 11.3237 48.1253 13.581C47.7693 14.2598 47.7326 14.9294 47.767 15.629C47.7854 16.0271 48.1161 16.3423 48.5157 16.3423C50.8006 16.3423 53.035 16.3492 55.2672 16.34C56.9252 16.3331 57.9356 15.3805 58.0711 13.726C58.1974 12.1866 59.3318 11.1119 60.7648 11.181C62.2024 11.2477 63.2426 12.4236 63.222 13.9584C63.176 17.5274 60.4823 20.8892 56.9436 21.3034C54.2567 21.6187 51.5148 21.4599 48.7981 21.5082C48.7201 21.5105 48.6443 21.5105 48.5685 21.5105C48.1597 21.5128 47.829 21.8465 47.829 22.2584V25.9286C47.829 26.3405 48.1643 26.6764 48.5754 26.6764C48.6948 26.6764 48.8119 26.6764 48.929 26.6764C54.4864 26.6764 60.0437 26.6718 65.6011 26.6787C67.2476 26.681 68.3751 27.7234 68.3774 29.3089C68.3889 39.7581 68.428 50.205 68.3591 60.6542C68.3246 65.8868 63.0451 69.4788 58.1239 67.7208C57.3225 67.4354 56.5807 66.9821 55.8183 66.561C55.568 66.423 55.258 66.4414 55.026 66.6117C52.2726 68.6159 48.7568 68.823 45.5854 66.5725ZM52.9064 55.2742C52.9064 53.5853 52.9202 51.894 52.9018 50.205C52.8858 48.6725 51.7881 47.538 50.3528 47.5219C48.8831 47.5058 47.7602 48.6586 47.7533 50.2372C47.7395 53.5876 47.7395 56.9402 47.7533 60.2906C47.7602 61.8737 48.8785 63.0266 50.3436 63.0174C51.811 63.0059 52.8904 61.8553 52.9018 60.2584C52.9156 58.597 52.9064 56.9356 52.9064 55.2742ZM42.5932 57.8515C42.5932 57.0208 42.607 56.1924 42.5909 55.3617C42.5611 53.8361 41.4657 52.7016 40.0327 52.6924C38.5997 52.6832 37.463 53.8154 37.4423 55.3272C37.4194 57.0162 37.4194 58.7052 37.4423 60.3918C37.463 61.9014 38.6089 63.0358 40.0396 63.0197C41.4381 63.0059 42.545 61.8921 42.5863 60.4264C42.6116 59.5681 42.5909 58.7098 42.5932 57.8515ZM58.0665 57.84C58.0665 58.7282 58.0389 59.6164 58.0734 60.5023C58.1262 61.9083 59.2446 63.0013 60.6063 63.022C62.0026 63.0427 63.1783 61.9382 63.2105 60.4908C63.2495 58.7466 63.2449 57.0001 63.2128 55.2535C63.1852 53.7993 62.0347 52.6901 60.6385 52.6924C59.2377 52.697 58.117 53.8062 58.0734 55.265C58.0435 56.121 58.0642 56.9817 58.0665 57.84Z" fill="#EFF2EE" stroke="#EFF2EE"/>
<path d="M16.7837 25.9309V21.7752C16.7837 21.4599 16.5839 21.1769 16.2876 21.0711C10.4524 19.0231 8.37416 13.4499 9.26976 9.12385C10.2779 4.25707 14.5998 0.782441 19.5899 0.84457C24.3687 0.906699 28.5873 4.46416 29.515 9.18368C30.4083 13.7421 28.0935 19.1036 22.5086 21.0595C22.2101 21.1631 22.0103 21.4461 22.0103 21.7637V25.9309C22.0103 26.3451 22.3479 26.6811 22.7612 26.6788C23.3285 26.6765 23.8819 26.6742 24.4353 26.6834C25.9739 26.7087 27.1061 27.7902 27.1221 29.233C27.1405 30.7103 25.9946 31.8217 24.4101 31.8447C23.8612 31.8539 23.3124 31.8516 22.7176 31.8493C22.3043 31.847 21.969 32.1853 21.969 32.5995C21.969 33.1885 21.9713 33.7638 21.9667 34.3391C21.9552 36.012 20.8988 37.1786 19.3993 37.1832C17.8974 37.1901 16.825 36.0235 16.8135 34.3575C16.8089 33.7845 16.8112 33.2115 16.8112 32.5972C16.8112 32.183 16.4759 31.847 16.0626 31.847C15.5229 31.847 14.9993 31.8493 14.4758 31.8447C12.8177 31.8309 11.6534 30.7563 11.658 29.2514C11.6626 27.7488 12.8292 26.6903 14.4964 26.6811C15.0016 26.6788 15.5091 26.6788 16.0373 26.6788C16.4484 26.6788 16.7837 26.3451 16.7837 25.9309ZM24.541 11.2063C24.5525 8.3714 22.2583 6.0358 19.4383 6.01279C16.6045 5.98978 14.2645 8.27935 14.2346 11.1028C14.2025 13.9768 16.5219 16.3377 19.3809 16.34C22.2032 16.3446 24.5295 14.0321 24.541 11.2063Z" fill="#EFF2EE" stroke="#EFF2EE"/>
</svg>
