<svg width="74" height="99" viewBox="0 0 74 99" fill="none" xmlns="http://www.w3.org/2000/svg">
<path d="M36.9998 59.0647L39.8411 56.8712C39.1637 55.9809 38.1135 55.4594 36.9998 55.4594C35.8865 55.4594 34.8363 55.9809 34.1584 56.8712L36.9998 59.0647ZM22.1489 66.4147L22.1599 62.8094C22.1348 62.8094 22.1097 62.8094 22.0846 62.8099L22.1489 66.4147ZM20.0342 29.7703L20.3849 33.3582C21.5338 33.2444 22.5577 32.5796 23.1348 31.5728C23.712 30.566 23.7717 29.3407 23.2951 28.2819L20.0342 29.7703ZM53.9656 29.7703L50.7046 28.2819C50.2282 29.3407 50.2879 30.566 50.865 31.5728C51.4422 32.5796 52.4661 33.2444 53.6152 33.3582L53.9656 29.7703ZM51.8508 66.4147L51.9153 62.8099C51.8904 62.8094 51.8651 62.8094 51.8398 62.8094L51.8508 66.4147ZM40.5801 59.0647C40.5801 57.0736 38.9775 55.4594 36.9998 55.4594C35.0225 55.4594 33.4195 57.0736 33.4195 59.0647H40.5801ZM33.4195 95.2572C33.4195 97.2483 35.0225 98.8625 36.9998 98.8625C38.9775 98.8625 40.5801 97.2483 40.5801 95.2572H33.4195ZM33.4195 59.0647C33.4195 61.0558 35.0225 62.67 36.9998 62.67C38.9775 62.67 40.5801 61.0558 40.5801 59.0647H33.4195ZM40.5801 49.5178C40.5801 47.5267 38.9775 45.9125 36.9998 45.9125C35.0225 45.9125 33.4195 47.5267 33.4195 49.5178H40.5801ZM40.5801 35.1686C40.5801 33.1775 38.9775 31.5633 36.9998 31.5633C35.0225 31.5633 33.4195 33.1775 33.4195 35.1686H40.5801ZM33.4195 39.9757C33.4195 41.9669 35.0225 43.581 36.9998 43.581C38.9775 43.581 40.5801 41.9669 40.5801 39.9757H33.4195ZM39.1479 42.86C40.7299 41.6653 41.0507 39.4055 39.864 37.8125C38.6777 36.2196 36.4336 35.8968 34.8516 37.0915L39.1479 42.86ZM25.3043 44.3021C23.7225 45.4967 23.4019 47.7565 24.5883 49.3495C25.7747 50.9426 28.019 51.2652 29.6005 50.0706L25.3043 44.3021ZM40.5801 39.9757C40.5801 37.9846 38.9775 36.3704 36.9998 36.3704C35.0225 36.3704 33.4195 37.9846 33.4195 39.9757H40.5801ZM33.4195 49.5178C33.4195 51.5089 35.0225 53.1231 36.9998 53.1231C38.9775 53.1231 40.5801 51.5089 40.5801 49.5178H33.4195ZM38.3469 46.1774C36.5148 45.4284 34.4263 46.3168 33.6825 48.1617C32.9388 50.0067 33.8209 52.1093 35.6531 52.8582L38.3469 46.1774ZM47.5874 57.7374C49.4196 58.4864 51.5076 57.598 52.2513 55.7531C52.9955 53.9081 52.1134 51.8055 50.2812 51.0565L47.5874 57.7374ZM34.1584 56.8712C31.2985 60.6275 26.8606 62.8238 22.1599 62.8094L22.1379 70.02C29.0735 70.0416 35.6211 66.8007 39.8411 61.2581L34.1584 56.8712ZM22.0846 62.8099C14.2179 62.9522 7.64235 56.8159 7.18588 48.9063L0.0373356 49.3246C0.716779 61.0976 10.504 70.231 22.2132 70.0195L22.0846 62.8099ZM7.18588 48.9063C6.72937 40.9966 12.5548 34.1345 20.3849 33.3582L19.6834 26.1823C8.02868 27.3377 -0.64206 37.5516 0.0373356 49.3246L7.18588 48.9063ZM23.2951 28.2819C22.4498 26.4038 22.0134 24.3653 22.0153 22.3033L14.8547 22.2968C14.8519 25.3877 15.506 28.4434 16.7732 31.2587L23.2951 28.2819ZM22.0153 22.3033C22.0153 13.9697 28.724 7.21063 36.9998 7.21063V0C24.7694 0 14.8547 9.98081 14.8547 22.2968L22.0153 22.3033ZM36.9998 7.21063C45.276 7.21063 51.9845 13.9664 51.9845 22.3001H59.145C59.145 9.98408 49.2305 0 36.9998 0V7.21063ZM51.9845 22.3001C51.9864 24.3621 51.5501 26.4038 50.7046 28.2819L57.2265 31.2587C58.4939 28.4434 59.1479 25.391 59.145 22.3001H51.9845ZM53.6152 33.3582C61.445 34.1345 67.2704 40.9966 66.814 48.9063L73.9627 49.3246C74.642 37.5516 65.971 27.3377 54.3164 26.1823L53.6152 33.3582ZM66.814 48.9063C66.3577 56.8159 59.7819 62.9522 51.9153 62.8099L51.7868 70.0195C63.4958 70.231 73.2829 61.0976 73.9627 49.3246L66.814 48.9063ZM51.8398 62.8094C47.1391 62.8238 42.7015 60.6275 39.8411 56.8712L34.1584 61.2581C38.3784 66.8007 44.9265 70.0416 51.8618 70.02L51.8398 62.8094ZM33.4195 59.0647V95.2572H40.5801V59.0647H33.4195ZM40.5801 59.0647V49.5178H33.4195V59.0647H40.5801ZM33.4195 35.1686V39.9757H40.5801V35.1686H33.4195ZM34.8516 37.0915L25.3043 44.3021L29.6005 50.0706L39.1479 42.86L34.8516 37.0915ZM33.4195 39.9757V49.5178H40.5801V39.9757H33.4195ZM35.6531 52.8582L47.5874 57.7374L50.2812 51.0565L38.3469 46.1774L35.6531 52.8582Z" fill="#EFF2EE"/>
<path d="M60.994 91.2047C63.1317 91.2047 64.8646 92.9498 64.8646 95.1024C64.8646 97.255 63.1317 99 60.994 99H13.7729C11.6352 99 9.9023 97.255 9.9023 95.1024C9.9023 92.9498 11.6352 91.2047 13.7729 91.2047H60.994Z" fill="#EFF2EE"/>
</svg>
