<svg width="47" height="47" viewBox="0 0 47 47" fill="none" xmlns="http://www.w3.org/2000/svg">
<path d="M23.4901 46.9C10.5601 46.9 0.0400391 36.38 0.0400391 23.45C0.0400391 10.52 10.5601 0 23.4901 0C36.4201 0 46.94 10.52 46.94 23.45C46.94 36.38 36.4201 46.9 23.4901 46.9ZM23.4901 0.440002C10.8001 0.440002 0.470047 10.76 0.470047 23.46C0.470047 36.16 10.7901 46.48 23.4901 46.48C36.1901 46.48 46.51 36.15 46.51 23.46C46.51 10.77 36.1801 0.440002 23.4901 0.440002Z" fill="#EFF2EE"/>
<path d="M12.5198 31.29C14.5098 32.57 16.8798 33.31 19.4198 33.31C27.7798 33.31 32.4998 26.25 32.2198 19.91C33.0998 19.28 33.8598 18.48 34.4698 17.58C33.6598 17.94 32.7898 18.18 31.8798 18.29C32.8098 17.73 33.5198 16.85 33.8598 15.8C32.9898 16.32 32.0298 16.69 30.9998 16.89C30.1798 16.01 29.0098 15.47 27.7098 15.47C24.7998 15.47 22.6698 18.18 23.3198 21C19.5798 20.81 16.2598 19.02 14.0398 16.29C12.8598 18.31 13.4298 20.96 15.4298 22.3C14.6898 22.28 13.9998 22.07 13.3898 21.74C13.3398 23.83 14.8398 25.78 16.9998 26.21C16.3698 26.38 15.6698 26.42 14.9698 26.29C15.5398 28.08 17.2098 29.38 19.1798 29.42C17.2898 30.9 14.8998 31.57 12.5098 31.28L12.5198 31.29Z" fill="#EFF2EE"/>
</svg>
