<svg width="213" height="101" viewBox="0 0 213 101" fill="none" xmlns="http://www.w3.org/2000/svg">
<path d="M73.6303 41.4172H66.7753V49.9094H62.9648V29.8553H74.3381L74.9586 32.8668H66.7753V38.4734H73.0679L73.6303 41.4268V41.4172Z" fill="#EFF2EE"/>
<path d="M80.3305 43.8961C80.4468 44.5255 80.6601 45.0678 80.9801 45.5326C81.3001 45.9974 81.7461 46.3556 82.3375 46.6074C82.929 46.8592 83.695 46.9947 84.6452 46.9947C85.4693 46.9947 86.2159 46.8688 86.8752 46.6268C87.5345 46.3847 88.1744 46.0748 88.8047 45.6972L89.9003 48.4956C89.4834 48.8345 89.018 49.1347 88.4944 49.4059C87.9708 49.677 87.3891 49.89 86.7492 50.0353C86.1092 50.1805 85.3723 50.258 84.5482 50.258C82.6963 50.258 81.1643 49.9481 79.9427 49.3478C78.721 48.7377 77.7999 47.8662 77.1793 46.7333C76.5588 45.6003 76.2485 44.2834 76.2485 42.7631C76.2485 41.2429 76.5394 39.8969 77.1212 38.764C77.7029 37.631 78.5271 36.7595 79.6033 36.1398C80.6795 35.5201 81.9594 35.2102 83.4623 35.2102C84.9651 35.2102 86.1674 35.5491 87.137 36.2269C88.1163 36.9048 88.8338 37.815 89.2895 38.9576C89.7549 40.1002 89.9876 41.3494 89.9876 42.705V43.8864H80.3305V43.8961ZM86.3516 41.33C86.2353 40.6812 86.0317 40.1487 85.7602 39.742C85.4887 39.3256 85.1396 39.0157 84.7421 38.8124C84.3446 38.609 83.8792 38.5025 83.375 38.5025C82.8708 38.5025 82.3957 38.609 81.9691 38.8221C81.5425 39.0351 81.2031 39.3546 80.9316 39.771C80.6698 40.1874 80.4759 40.7006 80.3596 41.33H86.3516Z" fill="#EFF2EE"/>
<path d="M92.3529 49.9095V35.6073H94.8641L95.5137 37.1082C96.144 36.6918 96.7645 36.3335 97.385 36.0334C98.0056 35.7332 98.6067 35.5008 99.1982 35.3555C99.7896 35.2103 100.303 35.1328 100.73 35.1328C101.874 35.1328 102.776 35.3362 103.445 35.7525C104.114 36.1689 104.599 36.7596 104.89 37.5343C105.181 38.3089 105.336 39.2482 105.336 40.3521V49.9385H101.467V41.088C101.467 40.478 101.409 39.9744 101.302 39.5677C101.196 39.161 101.011 38.8512 100.75 38.6382C100.497 38.4251 100.148 38.3186 99.7217 38.3186C99.2951 38.3186 98.8394 38.4058 98.4225 38.5801C98.0056 38.7544 97.6177 38.9868 97.2396 39.2579C96.8615 39.529 96.5124 39.7905 96.1731 40.0229V49.8998H92.3335L92.3529 49.9095ZM104.667 37.1082C105.258 36.6918 105.869 36.3335 106.499 36.0334C107.129 35.7332 107.731 35.5008 108.312 35.3555C108.894 35.2103 109.408 35.1328 109.864 35.1328C111.008 35.1328 111.909 35.3362 112.578 35.7525C113.247 36.1689 113.732 36.7596 114.023 37.5343C114.324 38.3089 114.469 39.2482 114.469 40.3521V49.9385H110.63V41.088C110.63 40.478 110.571 39.9744 110.455 39.5677C110.339 39.161 110.145 38.8512 109.893 38.6382C109.641 38.4251 109.292 38.3186 108.865 38.3186C108.438 38.3186 107.973 38.4058 107.566 38.5801C107.149 38.7544 106.751 38.9868 106.373 39.2579C105.985 39.529 105.636 39.7905 105.326 40.0229L104.676 37.0985L104.667 37.1082Z" fill="#EFF2EE"/>
<path d="M133.134 32.8378H126.25V49.9094H122.381V32.8378H116.273V29.8553H132.514L133.134 32.8378Z" fill="#EFF2EE"/>
<path d="M138.244 43.8961C138.36 44.5255 138.573 45.0678 138.893 45.5326C139.213 45.9974 139.659 46.3556 140.251 46.6074C140.842 46.8592 141.608 46.9947 142.558 46.9947C143.382 46.9947 144.129 46.8688 144.788 46.6268C145.448 46.3847 146.088 46.0748 146.718 45.6972L147.813 48.4956C147.406 48.8345 146.931 49.1347 146.407 49.4059C145.884 49.677 145.302 49.89 144.662 50.0353C144.022 50.1805 143.285 50.258 142.461 50.258C140.609 50.258 139.077 49.9481 137.856 49.3478C136.634 48.7474 135.713 47.8662 135.092 46.7333C134.472 45.6003 134.162 44.2834 134.162 42.7631C134.162 41.2429 134.453 39.8969 135.034 38.764C135.616 37.631 136.44 36.7595 137.516 36.1398C138.593 35.5201 139.872 35.2102 141.375 35.2102C142.878 35.2102 144.08 35.5491 145.05 36.2269C146.02 36.9048 146.747 37.815 147.203 38.9576C147.668 40.1002 147.901 41.3494 147.901 42.705V43.8864H138.244V43.8961ZM144.265 41.33C144.148 40.6812 143.945 40.1487 143.673 39.742C143.402 39.3256 143.062 39.0157 142.655 38.8124C142.248 38.609 141.792 38.5025 141.278 38.5025C140.765 38.5025 140.299 38.609 139.872 38.8221C139.446 39.0351 139.107 39.3546 138.835 39.771C138.573 40.1874 138.379 40.7006 138.263 41.33H144.255H144.265Z" fill="#EFF2EE"/>
<path d="M161.95 48.7861C161.514 49.125 160.98 49.4059 160.34 49.6286C159.701 49.8513 159.09 50.0159 158.498 50.1127C157.907 50.2096 157.403 50.258 156.995 50.258C155.444 50.258 154.096 49.9481 152.962 49.3478C151.827 48.7377 150.945 47.8662 150.315 46.7333C149.685 45.6003 149.365 44.2834 149.365 42.7631C149.365 41.2429 149.685 39.8969 150.315 38.764C150.945 37.631 151.827 36.7595 152.972 36.1398C154.116 35.5201 155.444 35.2102 156.957 35.2102C157.364 35.2102 157.878 35.2683 158.479 35.3845C159.08 35.5007 159.691 35.675 160.311 35.888C160.932 36.1011 161.475 36.3819 161.95 36.7111L160.854 39.4515C160.166 39.1416 159.526 38.8995 158.935 38.7252C158.343 38.5606 157.713 38.4735 157.044 38.4735C156.317 38.4735 155.667 38.6574 155.114 39.0351C154.552 39.4127 154.116 39.9163 153.815 40.5554C153.505 41.1945 153.35 41.9304 153.33 42.7535C153.33 43.5765 153.485 44.3125 153.805 44.9322C154.116 45.5616 154.562 46.0555 155.134 46.4234C155.706 46.7914 156.346 46.9657 157.054 46.9657C157.684 46.9657 158.304 46.8785 158.915 46.7139C159.526 46.5493 160.176 46.3072 160.864 45.9877L161.96 48.7571L161.95 48.7861Z" fill="#EFF2EE"/>
<path d="M164.519 49.9095V29.41L168.33 29.0905V49.9095H164.519ZM167.651 37.1082C168.281 36.6918 168.921 36.3335 169.571 36.0333C170.22 35.7332 170.86 35.5008 171.481 35.3555C172.101 35.2103 172.664 35.1328 173.177 35.1328C174.477 35.1328 175.475 35.3846 176.173 35.8978C176.872 36.411 177.366 37.0985 177.647 37.9797C177.928 38.8512 178.074 39.8389 178.074 40.9428V49.9385H174.263V41.088C174.263 40.1875 174.069 39.5 173.691 39.0255C173.313 38.551 172.799 38.3186 172.169 38.3186C171.694 38.3186 171.219 38.4057 170.734 38.58C170.249 38.7543 169.813 38.9867 169.415 39.2579C169.018 39.529 168.659 39.7905 168.32 40.0229L167.641 37.0985L167.651 37.1082Z" fill="#EFF2EE"/>
<path d="M62.9648 79.4046V59.3506H66.7753V79.4046H62.9648Z" fill="#EFF2EE"/>
<path d="M70.9057 79.4046V65.1024H73.4169L74.0665 66.6033C74.6968 66.1869 75.3367 65.8287 75.9863 65.5285C76.6359 65.2283 77.2662 64.9959 77.8867 64.8506C78.5072 64.7054 79.0696 64.6279 79.5835 64.6279C80.8827 64.6279 81.8814 64.8797 82.5795 65.3929C83.2776 65.9061 83.7721 66.5936 84.0533 67.4748C84.3442 68.3463 84.4799 69.334 84.4799 70.4379V79.4336H80.6694V70.5831C80.6694 69.6826 80.4755 68.9951 80.0974 68.5206C79.7095 68.0461 79.2053 67.8137 78.5751 67.8137C78.1 67.8137 77.6249 67.9009 77.1595 68.0752C76.6941 68.2495 76.2481 68.4819 75.8409 68.753C75.4337 69.0241 75.0652 69.2856 74.7356 69.518V79.3949H70.896L70.9057 79.4046Z" fill="#EFF2EE"/>
<path d="M87.6504 79.4046V65.1024H90.1616L90.8112 66.6033C91.4415 66.1869 92.0814 65.8287 92.731 65.5285C93.3806 65.2283 94.0206 64.9959 94.6411 64.8506C95.2616 64.7054 95.824 64.6279 96.3379 64.6279C97.6371 64.6279 98.6358 64.8797 99.3339 65.3929C100.032 65.9061 100.526 66.5936 100.808 67.4748C101.089 68.3463 101.234 69.334 101.234 70.4379V79.4336H97.4238V70.5831C97.4238 69.6826 97.2299 68.9951 96.8518 68.5206C96.4736 68.0461 95.9597 67.8137 95.3295 67.8137C94.8544 67.8137 94.3793 67.9009 93.9139 68.0752C93.4388 68.2495 93.0025 68.4819 92.605 68.753C92.1977 69.0241 91.8293 69.2856 91.4996 69.518V79.3949H87.6601L87.6504 79.4046Z" fill="#EFF2EE"/>
<path d="M111.163 79.7531C109.611 79.7531 108.254 79.4432 107.1 78.8429C105.946 78.2328 105.064 77.3613 104.443 76.2284C103.823 75.0955 103.513 73.7785 103.513 72.2583C103.513 70.738 103.833 69.392 104.473 68.2591C105.113 67.1261 106.005 66.2546 107.149 65.6349C108.293 65.0152 109.631 64.7053 111.163 64.7053C112.695 64.7053 114.091 65.0152 115.225 65.6156C116.36 66.2256 117.242 67.0874 117.872 68.2107C118.502 69.3339 118.822 70.6605 118.822 72.1905C118.822 73.7204 118.502 75.0277 117.872 76.1703C117.242 77.3129 116.35 78.1941 115.196 78.8138C114.042 79.4336 112.704 79.7434 111.163 79.7434V79.7531ZM111.192 76.4802C111.919 76.4802 112.559 76.2962 113.112 75.9185C113.664 75.5409 114.091 75.0374 114.391 74.3886C114.702 73.7398 114.847 73.0136 114.847 72.2098C114.847 71.4061 114.692 70.6605 114.372 70.0311C114.052 69.4017 113.625 68.9079 113.073 68.5399C112.52 68.1816 111.89 67.9976 111.182 67.9976C110.474 67.9976 109.805 68.1816 109.253 68.5593C108.7 68.9369 108.254 69.4404 107.953 70.0795C107.653 70.7186 107.488 71.4546 107.469 72.2776C107.469 73.1007 107.624 73.8366 107.944 74.4564C108.264 75.0858 108.7 75.5796 109.272 75.9476C109.844 76.3155 110.484 76.4899 111.192 76.4899V76.4802Z" fill="#EFF2EE"/>
<path d="M125.096 79.4046L119.812 65.6931L123.593 64.5698L126.899 73.7689L130.002 65.0927H134.074L128.402 79.3949H125.096V79.4046Z" fill="#EFF2EE"/>
<path d="M136.324 66.0126C136.692 65.7609 137.206 65.5382 137.856 65.3445C138.505 65.1605 139.174 65.0056 139.853 64.8894C140.532 64.7732 141.065 64.7151 141.463 64.7151C142.607 64.7151 143.644 64.9378 144.594 65.3929C145.545 65.848 146.291 66.4678 146.873 67.2618C147.445 68.0558 147.726 68.966 147.726 69.9925V79.4046H145.186L144.536 77.8746C144.003 78.4266 143.421 78.8817 142.791 79.2303C142.161 79.5789 141.482 79.7629 140.755 79.7629C139 79.7629 137.701 79.3368 136.857 78.4847C136.014 77.6326 135.587 76.5093 135.587 75.1343C135.587 73.6624 136.091 72.5295 137.09 71.7548C138.098 70.9802 139.407 70.5831 141.017 70.5638H143.819V70.5347C143.799 69.8278 143.586 69.2759 143.188 68.8692C142.791 68.4625 142.229 68.2688 141.521 68.2688C140.852 68.2688 140.125 68.3657 139.339 68.5593C138.554 68.753 137.895 68.9757 137.361 69.2081L136.324 66.0223V66.0126ZM139.116 75.8896C139.281 76.122 139.504 76.3253 139.766 76.4802C140.028 76.6352 140.328 76.7126 140.668 76.7126C141.201 76.7126 141.744 76.5964 142.296 76.3544C142.849 76.122 143.363 75.7637 143.857 75.2892V73.1105H140.968C140.299 73.1105 139.785 73.3138 139.417 73.7302C139.048 74.1466 138.874 74.6017 138.874 75.1149C138.874 75.386 138.951 75.6475 139.126 75.8799L139.116 75.8896Z" fill="#EFF2EE"/>
<path d="M159.002 68.0461H155.221V74.1466C155.221 74.8922 155.395 75.5022 155.754 75.9767C156.113 76.4512 156.627 76.6836 157.315 76.6836C157.567 76.6836 157.829 76.6545 158.081 76.5964C158.333 76.5383 158.605 76.4512 158.876 76.335L160.001 79.1044C159.788 79.2593 159.506 79.4046 159.177 79.5305C158.837 79.6563 158.488 79.7629 158.13 79.85C157.771 79.9372 157.431 79.9856 157.141 79.9856C155.938 79.9856 154.92 79.7822 154.086 79.3852C153.253 78.9785 152.593 78.3975 152.128 77.6325C151.653 76.8676 151.42 75.9283 151.42 74.8341V68.0461H149.471L149.5 65.1508H151.42V61.7326L155.231 61.0548V65.1508H157.829L159.012 68.0461H159.002Z" fill="#EFF2EE"/>
<path d="M162.454 62.4589C162.037 62.0328 161.833 61.5196 161.833 60.9096C161.833 60.2995 162.037 59.7863 162.454 59.3796C162.871 58.9632 163.375 58.7599 163.957 58.7599C164.539 58.7599 165.062 58.9632 165.489 59.3796C165.925 59.796 166.138 60.2995 166.138 60.9096C166.138 61.5196 165.925 62.0328 165.508 62.4589C165.082 62.885 164.577 63.0883 163.986 63.0883C163.395 63.0883 162.861 62.8753 162.454 62.4589ZM162.066 79.4046V65.1024H165.935V79.4046H162.066Z" fill="#EFF2EE"/>
<path d="M175.922 79.7531C174.37 79.7531 173.013 79.4432 171.859 78.8429C170.705 78.2425 169.823 77.3613 169.202 76.2284C168.582 75.0955 168.271 73.7785 168.271 72.2583C168.271 70.738 168.591 69.392 169.231 68.2591C169.871 67.1261 170.763 66.2546 171.907 65.6349C173.052 65.0152 174.39 64.7053 175.922 64.7053C177.453 64.7053 178.85 65.0152 179.984 65.6156C181.118 66.2256 182.001 67.0874 182.631 68.2107C183.261 69.3339 183.581 70.6605 183.581 72.1905C183.581 73.7204 183.261 75.0277 182.631 76.1703C182.001 77.3129 181.109 78.1941 179.955 78.8138C178.801 79.4336 177.463 79.7434 175.922 79.7434V79.7531ZM175.951 76.4802C176.678 76.4802 177.318 76.2962 177.87 75.9185C178.423 75.5409 178.85 75.0374 179.16 74.3886C179.47 73.7398 179.616 73.0136 179.616 72.2098C179.616 71.4061 179.46 70.6605 179.141 70.0311C178.821 69.4017 178.394 68.9079 177.841 68.5399C177.289 68.1816 176.658 67.9976 175.951 67.9976C175.243 67.9976 174.574 68.1816 174.021 68.5593C173.459 68.9369 173.022 69.4404 172.722 70.0795C172.412 70.7186 172.256 71.4546 172.237 72.2776C172.237 73.1007 172.392 73.8366 172.712 74.4564C173.022 75.0858 173.468 75.5796 174.041 75.9476C174.613 76.3155 175.252 76.4899 175.96 76.4899L175.951 76.4802Z" fill="#EFF2EE"/>
<path d="M185.908 79.4046V65.1024H188.419L189.069 66.6033C189.699 66.1869 190.339 65.8287 190.989 65.5285C191.638 65.2283 192.269 64.9959 192.889 64.8506C193.51 64.7054 194.072 64.6279 194.586 64.6279C195.885 64.6279 196.884 64.8797 197.582 65.3929C198.28 65.9061 198.775 66.5936 199.056 67.4748C199.347 68.3463 199.482 69.334 199.482 70.4379V79.4336H195.672V70.5831C195.672 69.6826 195.478 68.9951 195.1 68.5206C194.712 68.0461 194.208 67.8137 193.578 67.8137C193.102 67.8137 192.627 67.9009 192.162 68.0752C191.697 68.2495 191.251 68.4819 190.843 68.753C190.436 69.0241 190.068 69.2856 189.738 69.518V79.3949H185.898L185.908 79.4046Z" fill="#EFF2EE"/>
<path d="M202.973 75.7153C203.448 75.8703 203.894 76.0349 204.33 76.1898C204.767 76.3448 205.174 76.461 205.571 76.5481C205.969 76.6256 206.347 76.6643 206.725 76.6643C207.055 76.6643 207.404 76.6159 207.753 76.5191C208.112 76.4222 208.422 76.2867 208.684 76.1027C208.946 75.9187 209.081 75.696 209.081 75.4248C209.081 75.1537 208.984 74.8923 208.8 74.6599C208.616 74.4275 208.335 74.2144 207.957 74.0208C207.578 73.8368 207.123 73.6722 206.57 73.5366C205.843 73.2849 205.106 72.9556 204.369 72.5683C203.632 72.1713 203.012 71.6968 202.527 71.1255C202.032 70.5542 201.79 69.8763 201.79 69.092C201.79 67.717 202.294 66.6421 203.303 65.8772C204.301 65.1122 205.678 64.7249 207.404 64.7249C207.821 64.7249 208.315 64.783 208.897 64.8992C209.479 65.0154 210.07 65.1896 210.681 65.4027C211.292 65.6157 211.835 65.8965 212.3 66.2258L211.147 68.7918C210.458 68.5013 209.818 68.2592 209.227 68.0849C208.635 67.9106 208.005 67.8235 207.336 67.8235C206.842 67.8235 206.444 67.9494 206.124 68.1915C205.804 68.4335 205.649 68.724 205.649 69.0629C205.63 69.3534 205.872 69.6149 206.376 69.8473C206.88 70.07 207.375 70.2734 207.869 70.4477C208.674 70.7188 209.45 71.0771 210.206 71.5225C210.962 71.9679 211.563 72.4908 212.039 73.1009C212.514 73.7109 212.746 74.4468 212.746 75.3087C212.746 76.7224 212.242 77.8166 211.224 78.601C210.206 79.3756 208.732 79.7629 206.783 79.7629C206.386 79.7629 205.882 79.7145 205.261 79.6177C204.641 79.5209 204.03 79.3563 203.429 79.1335C202.827 78.9108 202.304 78.63 201.848 78.2911L202.973 75.725V75.7153Z" fill="#EFF2EE"/>
<path d="M40.9747 0.534424H7.67912C3.44203 0.534424 0 3.97198 0 8.20356V73.856C0 74.6017 0.494489 75.2504 1.21198 75.4538L2.43366 75.7636L24.3269 39.3062L45.5802 74.7179C45.9681 75.3473 46.734 75.6474 47.4515 75.4441L48.6635 75.0665V8.20356C48.6635 3.97198 45.2215 0.534424 40.9844 0.534424H40.9747ZM25.2383 34.6485L23.3864 34.6679L16.6769 45.8714C15.4261 44.2156 14.728 42.1918 14.728 40.0808C14.728 34.7938 19.033 30.4944 24.3269 30.4944C29.6209 30.4944 33.9258 34.7938 33.9258 40.0808C33.9258 42.1724 33.2277 44.2059 31.9769 45.8521L25.7425 35.4426L25.2286 34.6485H25.2383ZM45.4154 68.2882L33.6059 48.5537C35.7195 46.2491 36.9121 43.2182 36.9121 40.0712C36.9121 33.138 31.2691 27.5023 24.3269 27.5023C17.3847 27.5023 11.7417 33.138 11.7417 40.0712C11.7417 43.2376 12.9343 46.2491 15.0577 48.5537L3.23842 68.2785V8.20356C3.23842 5.76338 5.22607 3.76863 7.67912 3.76863H40.9747C43.4181 3.76863 45.4154 5.7537 45.4154 8.20356V68.2882Z" fill="#EFF2EE"/>
<path d="M33.2083 7.77747H15.2709C14.2141 7.77747 13.3608 8.62959 13.3608 9.68507C13.3608 10.7405 14.2141 11.5927 15.2709 11.5927H33.2083C34.2651 11.5927 35.1184 10.7405 35.1184 9.68507C35.1184 8.62959 34.2651 7.77747 33.2083 7.77747Z" fill="#EFF2EE"/>
<path d="M27.5265 54.228C26.5085 55.5546 25.4904 56.8909 24.4723 58.2175C24.4238 55.5837 24.4238 50.3257 24.4238 50.3257C23.9972 48.205 21.7575 49.7156 21.7575 49.7156L4.77034 77.7971C4.77034 77.7971 4.51824 78.7266 4.81881 79.0559C5.03212 79.3851 5.42965 79.6175 6.01141 79.6175H42.2739C43.3695 79.6175 43.5053 77.7971 43.5053 77.7971C43.5053 77.7971 33.9064 60.6577 29.999 54.228C29.4851 53.3759 28.0792 53.5018 27.5265 54.228Z" fill="#EFF2EE"/>
<path d="M2.04583 92.7965C2.59849 92.7965 3.08328 92.8643 3.5099 93.0095C3.93652 93.1548 4.27587 93.3872 4.52797 93.7164C4.78006 94.0457 4.9061 94.4911 4.9061 95.0527C4.9061 95.6047 4.76067 96.0501 4.49888 96.3793C4.23709 96.7085 3.89774 96.9603 3.48081 97.1249L5.52664 100.708H4.71219L2.84089 97.3186C2.69545 97.338 2.54032 97.3476 2.38518 97.3573C2.23005 97.367 2.07491 97.3767 1.91978 97.3767H0.727189V100.708H0V92.7965H2.04583ZM0.717494 93.4162V96.7957H1.93917C2.3367 96.7957 2.69545 96.7473 3.0348 96.6408C3.36446 96.5439 3.63595 96.3599 3.84926 96.1082C4.06256 95.8564 4.15952 95.5078 4.15952 95.0818C4.15952 94.6557 4.07226 94.2877 3.88804 94.0456C3.70382 93.8036 3.46142 93.639 3.14146 93.5518C2.8215 93.4647 2.46275 93.4162 2.06522 93.4162H0.727189H0.717494Z" fill="#EFF2EE"/>
<path d="M6.7583 100.708V92.7965H10.9566L11.0148 93.3194H7.48549V96.389H10.2779L10.3361 96.9119H7.47579V100.127H11.2087L11.2766 100.708H6.7583Z" fill="#EFF2EE"/>
<path d="M12.6143 100.708V92.7965H13.0894L17.2489 98.5193L17.6464 99.2068V92.7965H18.3833V100.708H17.9082L13.5063 94.5298L13.3414 94.1909V100.708H12.6143Z" fill="#EFF2EE"/>
<path d="M21.2048 97.8221C21.2048 98.2676 21.2921 98.6839 21.4763 99.0422C21.6605 99.4005 21.9126 99.691 22.2423 99.904C22.5719 100.117 22.9597 100.224 23.4058 100.224C23.8712 100.224 24.2687 100.117 24.5984 99.904C24.928 99.691 25.1704 99.4005 25.3449 99.0422C25.5195 98.6839 25.6067 98.2676 25.6067 97.8221V92.7965H26.3436V97.9286C26.3436 98.4903 26.2273 98.9841 25.9849 99.4295C25.7425 99.875 25.4128 100.224 24.9765 100.475C24.5402 100.727 24.0166 100.853 23.4058 100.853C22.8143 100.853 22.3004 100.717 21.8641 100.466C21.4278 100.214 21.0884 99.875 20.8461 99.4295C20.6037 98.9841 20.4873 98.4903 20.4873 97.9286V92.7965H21.2145V97.8221H21.2048Z" fill="#EFF2EE"/>
<path d="M28.438 100.708V92.7965H32.6363L32.6945 93.3194H29.1652V96.389H31.9576L32.0158 96.9119H29.1555V100.127H32.8884L32.9563 100.708H28.438Z" fill="#EFF2EE"/>
<path d="M36.7183 99.778L39.2974 92.7964H39.9858L37.1061 100.708H36.3498L33.3247 92.8545L34.0325 92.7383L36.728 99.778H36.7183Z" fill="#EFF2EE"/>
<path d="M43.8444 92.7965L46.8696 100.65L46.1618 100.766L45.231 98.3353H41.7695L40.8969 100.708H40.2085L43.0882 92.7965H43.8444ZM43.4663 93.7261L41.9634 97.7543H45.0176L43.4663 93.7261Z" fill="#EFF2EE"/>
<path d="M56.0515 93.3678H53.3173V100.708H52.5804V93.3678H49.8462V92.7965H55.9934L56.0515 93.3678Z" fill="#EFF2EE"/>
<path d="M57.8845 97.8221C57.8845 98.2676 57.9717 98.6839 58.156 99.0422C58.3402 99.4005 58.5923 99.691 58.9219 99.904C59.2516 100.117 59.6394 100.224 60.0854 100.224C60.5508 100.224 60.9484 100.117 61.278 99.904C61.6077 99.691 61.8501 99.4005 62.0246 99.0422C62.1991 98.6839 62.2864 98.2676 62.2864 97.8221V92.7965H63.0233V97.9286C63.0233 98.4903 62.9069 98.9841 62.6645 99.4295C62.4221 99.875 62.0925 100.224 61.6562 100.475C61.2199 100.727 60.6963 100.853 60.0854 100.853C59.494 100.853 58.9801 100.717 58.5438 100.466C58.1075 100.214 57.7681 99.875 57.5257 99.4295C57.2833 98.9841 57.167 98.4903 57.167 97.9286V92.7965H57.8942V97.8221H57.8845Z" fill="#EFF2EE"/>
<path d="M71.0706 98.0352L68.5788 94.3458V100.708H67.8516V92.7965H68.2588L71.1578 96.9603L74.0084 92.7965H74.4835V100.708H73.7466V94.2877L71.2936 97.9867L71.0609 98.0352H71.0706Z" fill="#EFF2EE"/>
<path d="M79.758 100.872C79.0599 100.872 78.4394 100.698 77.8867 100.349C77.3341 100.001 76.9074 99.5166 76.5972 98.8968C76.2869 98.2771 76.1221 97.5799 76.1221 96.7859C76.1221 95.9919 76.2772 95.285 76.5972 94.6652C76.9171 94.0455 77.3534 93.5517 77.9158 93.1837C78.4782 92.8157 79.1084 92.6318 79.8259 92.6124C80.5337 92.6124 81.1639 92.7867 81.7069 93.1353C82.2595 93.4839 82.6862 93.968 82.9964 94.5878C83.3067 95.2075 83.4715 95.9047 83.4715 96.6987C83.4715 97.4928 83.3164 98.1996 82.9964 98.829C82.6765 99.4585 82.2402 99.9523 81.6778 100.311C81.1154 100.669 80.4755 100.863 79.758 100.872ZM79.7386 100.233C80.3107 100.233 80.8246 100.078 81.2609 99.778C81.7069 99.4778 82.0462 99.0614 82.308 98.5289C82.5601 97.9963 82.6862 97.3862 82.6862 96.7084C82.6862 96.0306 82.5601 95.4496 82.3177 94.9267C82.0753 94.4038 81.736 93.9971 81.3094 93.7066C80.8827 93.4064 80.3979 93.2612 79.8453 93.2612C79.2926 93.2612 78.769 93.4161 78.323 93.7163C77.877 94.0165 77.528 94.4328 77.2759 94.9654C77.0238 95.498 76.8977 96.0984 76.8977 96.7762C76.8977 97.454 77.0238 98.035 77.2662 98.5579C77.5086 99.0808 77.8479 99.4875 78.2746 99.7877C78.7012 100.088 79.186 100.233 79.7386 100.233ZM79.9228 92.1089L80.9118 90.3271H80.0877L79.4574 91.9539L79.9228 92.1089Z" fill="#EFF2EE"/>
<path d="M87.5243 99.778L90.1034 92.7964H90.7918L87.9122 100.708H87.1559L84.1211 92.8545L84.8289 92.7383L87.5243 99.778Z" fill="#EFF2EE"/>
<path d="M92.0039 100.708V92.7965H92.7311V100.708H92.0039Z" fill="#EFF2EE"/>
<path d="M99.5086 100.708H94.9419V92.7965H95.6691V100.127H99.4602L99.5183 100.708H99.5086Z" fill="#EFF2EE"/>
<path d="M108.38 99.8363C108.109 100.156 107.76 100.408 107.353 100.592C106.945 100.776 106.441 100.863 105.85 100.863C105.297 100.863 104.793 100.756 104.347 100.563C103.891 100.369 103.542 100.088 103.28 99.7104C103.019 99.3327 102.893 98.8583 102.893 98.3063C102.893 97.7834 103.019 97.2992 103.261 96.8732C103.503 96.4471 103.814 96.1179 104.192 95.8855C104.075 95.7112 103.988 95.5369 103.92 95.3432C103.862 95.1496 103.823 94.9269 103.823 94.6654C103.823 94.2974 103.901 93.9488 104.066 93.639C104.231 93.3291 104.463 93.0773 104.783 92.8934C105.094 92.7094 105.481 92.6125 105.927 92.6125C106.315 92.6125 106.645 92.661 106.926 92.7481C107.198 92.845 107.459 92.9418 107.692 93.058L107.44 93.6002C107.246 93.5034 107.052 93.4163 106.848 93.3291C106.645 93.242 106.344 93.2032 105.937 93.2032C105.646 93.2032 105.404 93.271 105.19 93.3969C104.977 93.5325 104.812 93.6971 104.696 93.9101C104.58 94.1231 104.521 94.3362 104.521 94.5783C104.521 94.8591 104.57 95.1012 104.667 95.3045C104.764 95.5078 104.909 95.7112 105.094 95.9049C105.278 96.0985 105.501 96.3212 105.772 96.5827L108.216 98.8873C108.371 98.5968 108.497 98.2773 108.584 97.919C108.671 97.5607 108.729 97.1734 108.768 96.757L109.302 96.97C109.282 97.4348 109.224 97.8706 109.127 98.2579C109.03 98.6549 108.894 99.0132 108.72 99.3327L109.689 100.233L109.35 100.708L108.38 99.8363ZM104.958 96.6989C104.89 96.6408 104.822 96.573 104.764 96.5149C104.706 96.4568 104.638 96.3987 104.589 96.3503C104.279 96.5246 104.037 96.7764 103.882 97.1153C103.717 97.4542 103.629 97.8415 103.629 98.2773C103.629 98.7227 103.736 99.1003 103.959 99.3908C104.172 99.691 104.454 99.904 104.793 100.04C105.132 100.175 105.491 100.253 105.869 100.253C106.315 100.253 106.703 100.175 107.042 100.03C107.382 99.8847 107.673 99.662 107.905 99.3715L104.967 96.6989H104.958Z" fill="#EFF2EE"/>
<path d="M115.982 92.7965C116.534 92.7965 117.019 92.8643 117.446 93.0095C117.872 93.1548 118.212 93.3872 118.464 93.7164C118.716 94.0457 118.842 94.4911 118.842 95.0527C118.842 95.6047 118.697 96.0501 118.435 96.3793C118.173 96.7085 117.834 96.9603 117.417 97.1249L119.463 100.708H118.648L116.777 97.3186C116.631 97.338 116.476 97.3476 116.321 97.3573C116.166 97.367 116.011 97.3767 115.856 97.3767H114.653V100.708H113.926V92.7965H115.972H115.982ZM114.653 93.4162V96.7957H115.875C116.273 96.7957 116.631 96.7473 116.971 96.6408C117.3 96.5439 117.572 96.3599 117.785 96.1082C117.999 95.8564 118.095 95.5078 118.095 95.0818C118.095 94.6557 118.008 94.2877 117.824 94.0456C117.64 93.8036 117.397 93.639 117.077 93.5518C116.757 93.4647 116.399 93.4162 116.001 93.4162H114.653Z" fill="#EFF2EE"/>
<path d="M120.694 100.708V92.7965H124.892L124.95 93.3194H121.421V96.389H124.213L124.272 96.9119H121.411V100.127H125.144L125.212 100.708H120.694Z" fill="#EFF2EE"/>
<path d="M126.55 100.708V92.7965H129.255C130.07 92.7965 130.729 92.9708 131.224 93.3291C131.718 93.6777 132.087 94.1522 132.31 94.7428C132.542 95.3335 132.649 95.992 132.649 96.7085C132.649 97.4251 132.523 98.1029 132.251 98.713C131.99 99.323 131.602 99.8072 131.078 100.165C130.555 100.524 129.915 100.708 129.139 100.708H126.541H126.55ZM127.277 93.4162V100.107H129.178C129.74 100.107 130.225 99.9621 130.642 99.6813C131.059 99.4005 131.379 99.0035 131.611 98.4903C131.844 97.9867 131.961 97.3864 131.961 96.7182C131.961 96.0888 131.864 95.5272 131.67 95.0333C131.476 94.5395 131.185 94.1425 130.787 93.852C130.39 93.5615 129.895 93.4162 129.294 93.4162H127.277Z" fill="#EFF2EE"/>
<path d="M134.899 97.8221C134.899 98.2676 134.986 98.6839 135.17 99.0422C135.354 99.4005 135.606 99.691 135.936 99.904C136.266 100.117 136.654 100.224 137.1 100.224C137.565 100.224 137.963 100.117 138.292 99.904C138.622 99.691 138.864 99.4005 139.039 99.0422C139.213 98.6839 139.301 98.2676 139.301 97.8221V92.7965H140.037V97.9286C140.037 98.4903 139.921 98.9841 139.679 99.4295C139.436 99.875 139.107 100.224 138.67 100.475C138.234 100.727 137.71 100.853 137.1 100.853C136.508 100.853 135.994 100.717 135.558 100.466C135.122 100.214 134.782 99.875 134.54 99.4295C134.297 98.9841 134.181 98.4903 134.181 97.9286V92.7965H134.908V97.8221H134.899Z" fill="#EFF2EE"/>
<path d="M146.95 93.6002C146.795 93.5324 146.64 93.4743 146.485 93.4162C146.33 93.3678 146.155 93.329 145.971 93.3C145.777 93.2709 145.545 93.2612 145.263 93.2612C144.711 93.2612 144.216 93.4162 143.77 93.7164C143.324 94.0262 142.965 94.4426 142.713 94.9655C142.452 95.4884 142.326 96.0984 142.326 96.7763C142.326 97.2507 142.393 97.6962 142.519 98.1126C142.646 98.5289 142.83 98.8969 143.072 99.2165C143.315 99.536 143.615 99.7781 143.964 99.9621C144.313 100.136 144.72 100.233 145.166 100.233C145.583 100.233 145.932 100.194 146.194 100.127C146.466 100.059 146.698 99.9717 146.912 99.8846L147.193 100.446C147.047 100.524 146.854 100.591 146.631 100.659C146.398 100.727 146.155 100.775 145.903 100.814C145.651 100.853 145.409 100.872 145.186 100.872C144.585 100.872 144.051 100.766 143.596 100.543C143.14 100.32 142.762 100.02 142.461 99.6425C142.161 99.2649 141.928 98.8291 141.783 98.3353C141.637 97.8414 141.56 97.3379 141.56 96.7956C141.56 96.2146 141.647 95.6724 141.812 95.1689C141.976 94.6653 142.229 94.2199 142.549 93.8422C142.869 93.4646 143.256 93.1644 143.722 92.9514C144.187 92.7384 144.691 92.6318 145.263 92.6318C145.428 92.6318 145.632 92.6512 145.884 92.6803C146.136 92.7093 146.378 92.7577 146.621 92.8158C146.863 92.8739 147.057 92.9611 147.203 93.0579L146.97 93.5905L146.95 93.6002Z" fill="#EFF2EE"/>
<path d="M148.589 100.708V92.7965H152.787L152.845 93.3194H149.316V96.389H152.108L152.167 96.9119H149.316V100.127H153.049L153.117 100.708H148.599H148.589Z" fill="#EFF2EE"/>
<path d="M162.406 93.3678H159.671V100.708H158.934V93.3678H156.2V92.7965H162.347L162.406 93.3678Z" fill="#EFF2EE"/>
<path d="M164.229 97.8221C164.229 98.2676 164.316 98.6839 164.5 99.0422C164.684 99.4005 164.937 99.691 165.266 99.904C165.596 100.117 165.984 100.224 166.43 100.224C166.895 100.224 167.293 100.117 167.622 99.904C167.952 99.691 168.194 99.4005 168.369 99.0422C168.543 98.6839 168.631 98.2676 168.631 97.8221V92.7965H169.368V97.9286C169.368 98.4903 169.251 98.9841 169.009 99.4295C168.766 99.875 168.437 100.224 168 100.475C167.564 100.727 167.041 100.853 166.43 100.853C165.838 100.853 165.324 100.717 164.888 100.466C164.452 100.214 164.112 99.875 163.87 99.4295C163.628 98.9841 163.511 98.4903 163.511 97.9286V92.7965H164.238V97.8221H164.229Z" fill="#EFF2EE"/>
<path d="M178.85 100.708V96.9989H174.923V100.708H174.196V92.7964L174.923 92.7383V96.4179H178.85V92.7964H179.577V100.708H178.85Z" fill="#EFF2EE"/>
<path d="M182.398 97.8221C182.398 98.2676 182.485 98.6839 182.67 99.0422C182.854 99.4005 183.106 99.691 183.436 99.904C183.765 100.117 184.153 100.224 184.599 100.224C185.065 100.224 185.462 100.117 185.792 99.904C186.121 99.691 186.364 99.4005 186.538 99.0422C186.713 98.6839 186.8 98.2676 186.8 97.8221V92.7965H187.537V97.9286C187.537 98.4903 187.421 98.9841 187.178 99.4295C186.936 99.875 186.606 100.224 186.17 100.475C185.734 100.727 185.21 100.853 184.599 100.853C184.008 100.853 183.494 100.717 183.057 100.466C182.621 100.214 182.282 99.875 182.039 99.4295C181.797 98.9841 181.681 98.4903 181.681 97.9286V92.7965H182.408V97.8221H182.398Z" fill="#EFF2EE"/>
<path d="M189.632 100.708V92.7965H193.83L193.888 93.3194H190.359V96.389H193.151L193.21 96.9119H190.349V100.127H194.082L194.15 100.708H189.632Z" fill="#EFF2EE"/>
<path d="M200.055 100.708H195.488V92.7965H196.215V100.127H200.007L200.065 100.708H200.055Z" fill="#EFF2EE"/>
<path d="M205.853 100.708H201.286V92.7965H202.013V100.127H205.804L205.863 100.708H205.853Z" fill="#EFF2EE"/>
<path d="M209.721 92.7965L212.746 100.65L212.039 100.766L211.108 98.3353H207.646L206.774 100.708H206.085L208.965 92.7965H209.721ZM209.343 93.7261L207.84 97.7543H210.895L209.343 93.7261Z" fill="#EFF2EE"/>
</svg>
