<svg width="25" height="23" viewBox="0 0 25 23" fill="none" xmlns="http://www.w3.org/2000/svg">
<path d="M10.337 3.06395L11.3814 2.0526L10.337 3.06396C10.9469 3.69386 11.7697 3.94766 12.5 3.94766C13.2303 3.94766 14.0531 3.69386 14.663 3.06395C14.9675 2.74949 15.3103 2.47452 15.684 2.24623C16.4492 1.77869 17.3181 1.52268 18.2058 1.50072C19.6535 1.57681 21.0212 2.22715 22.0132 3.32274C23.0163 4.43065 23.5522 5.90331 23.496 7.41967L23.495 7.44744V7.47522C23.495 9.40083 22.48 11.5999 20.7794 13.8747C19.1043 16.1154 16.9055 18.2424 14.8578 19.9915L14.8567 19.9924C14.193 20.5604 13.3583 20.8684 12.5 20.8684C11.6417 20.8684 10.807 20.5604 10.1433 19.9924L10.1422 19.9915C8.09454 18.2424 5.8957 16.1154 4.22057 13.8747C2.51998 11.5999 1.50504 9.40083 1.50504 7.47522V7.44744L1.50401 7.41967C1.44782 5.90331 1.98373 4.43065 2.98684 3.32274C3.97879 2.22715 5.34653 1.57681 6.79424 1.50072C7.68193 1.52268 8.55081 1.77869 9.31603 2.24623C9.68967 2.47452 10.0325 2.74949 10.337 3.06395Z" stroke="#EFF2EE" stroke-width="3"/>
</svg>
