<svg width="47" height="47" viewBox="0 0 47 47" fill="none" xmlns="http://www.w3.org/2000/svg">
<path d="M23.45 46.9C10.52 46.9 0 36.38 0 23.45C0 10.52 10.52 0 23.45 0C36.38 0 46.9 10.52 46.9 23.45C46.9 36.38 36.38 46.9 23.45 46.9ZM23.45 0.440002C10.76 0.440002 0.430008 10.77 0.430008 23.46C0.430008 36.15 10.75 46.48 23.45 46.48C36.15 46.48 46.47 36.15 46.47 23.46C46.47 10.77 36.14 0.440002 23.45 0.440002Z" fill="#EFF2EE"/>
<path d="M32.2603 15.5605C32.089 15.4698 31.9222 15.3704 31.7606 15.2626C31.2906 14.9443 30.8598 14.5694 30.4772 14.1457C29.5201 13.024 29.1626 11.886 29.031 11.0892H29.0363C28.9263 10.4279 28.9717 10 28.9786 10H24.6192V27.2664C24.6192 27.4982 24.6192 27.7273 24.6097 27.9537C24.6097 27.9819 24.6071 28.0079 24.6055 28.0382C24.6055 28.0507 24.6055 28.0637 24.6029 28.0767C24.6029 28.0799 24.6029 28.0832 24.6029 28.0864C24.5569 28.7059 24.363 29.3044 24.0383 29.8292C23.7135 30.3539 23.2678 30.7889 22.7404 31.0958C22.1908 31.4161 21.5691 31.5841 20.9367 31.5833C18.9056 31.5833 17.2595 29.8868 17.2595 27.7918C17.2595 25.6967 18.9056 24.0003 20.9367 24.0003C21.3212 23.9999 21.7033 24.0619 22.0689 24.1839L22.0742 19.6374C20.9644 19.4906 19.837 19.5809 18.7631 19.9027C17.6891 20.2245 16.6919 20.7708 15.8344 21.5071C15.083 22.1758 14.4513 22.9737 13.9678 23.8649C13.7837 24.1899 13.0894 25.4958 13.0053 27.6152C12.9525 28.8182 13.3052 30.0645 13.4733 30.5796V30.5904C13.5791 30.8937 13.9889 31.9288 14.6568 32.8014C15.1953 33.5013 15.8316 34.1162 16.5451 34.6262V34.6154L16.5557 34.6262C18.6661 36.0951 21.006 35.9987 21.006 35.9987C21.4111 35.9819 22.7679 35.9987 24.3088 35.2507C26.0179 34.4214 26.9909 33.186 26.9909 33.186C27.6125 32.4478 28.1067 31.6065 28.4525 30.6982C28.847 29.6361 28.9786 28.3621 28.9786 27.853V18.6928C29.0315 18.7253 29.7359 19.2025 29.7359 19.2025C29.7359 19.2025 30.7506 19.8687 32.3338 20.3025C33.4697 20.6113 35 20.6763 35 20.6763V16.2435C34.4638 16.3031 33.375 16.1297 32.2603 15.5605Z" fill="#EFF2EE"/>
</svg>
